<svg width="38" height="35" viewBox="0 0 38 35" fill="none" xmlns="http://www.w3.org/2000/svg">
<g clip-path="url(#clip0)">
<path d="M8.69998 24.0802L8.58998 23.9302H8.11998C7.73998 23.9302 7.64998 23.9302 7.66998 23.9302C8.71522 25.5525 10.1062 26.9236 11.7434 27.9453C13.3806 28.967 15.2234 29.6141 17.14 29.8402C18.0857 29.9003 19.0343 29.9003 19.98 29.8402C21.7398 29.6567 23.4443 29.1192 24.9909 28.2599C26.5376 27.4007 27.8945 26.2374 28.98 24.8402C29.2244 24.5412 29.445 24.2236 29.64 23.8902C29.4939 23.8712 29.346 23.8712 29.2 23.8902H28.75L28.48 24.2502C28.33 24.4502 28.05 24.7902 27.87 25.0102C27.504 25.4173 27.1133 25.8014 26.7 26.1602C26.63 26.1602 26.57 26.1602 26.12 26.0702C25.24 25.8502 24.12 25.6402 23.18 25.5102C23.0087 25.4975 22.8384 25.4742 22.67 25.4402H22.56L22.64 25.2102C22.68 24.9902 22.98 23.9902 22.98 23.9302C22.8478 23.9056 22.7122 23.9056 22.58 23.9302H22.19L22.08 24.3102C22.02 24.5302 21.93 24.8302 21.86 25.0302L21.75 25.3502H21.56L20.64 25.3002C19.0005 25.2157 17.3574 25.2324 15.72 25.3502H15.54L15.38 24.9902C15.31 24.7502 15.22 24.4302 15.16 24.2502L15.07 23.9502H14.68C14.32 23.9502 14.28 23.9502 14.28 24.0002C14.3629 24.3908 14.4732 24.7751 14.61 25.1502L14.7 25.4702L14.12 25.5402C13.12 25.6702 12.12 25.8502 11.12 26.0802L10.6 26.2102L10.44 25.9902C9.78481 25.3813 9.18881 24.7116 8.65998 23.9902L8.69998 24.0802ZM10.19 12.7002V11.3002H2.88998V12.7002V14.1002H3.80998H4.69998V19.7802H2.88998V21.1802V22.5802H6.53998H10.18V19.7802H8.36998V14.1402H10.2V12.7002H10.19ZM29.79 11.1602C29.1455 11.0958 28.4973 11.0757 27.85 11.1002C27.0168 11.1725 26.2019 11.3856 25.44 11.7302C24.6146 12.1153 23.9038 12.7088 23.3777 13.4524C22.8516 14.1959 22.5284 15.0637 22.44 15.9702C22.3901 16.5759 22.3901 17.1846 22.44 17.7902C22.5411 18.7041 22.8489 19.5829 23.34 20.3602C23.8205 21.0298 24.4417 21.5861 25.16 21.9902C26.3693 22.5858 27.7155 22.8482 29.06 22.7502C31.77 22.5802 33.69 21.2502 34.43 19.0302C34.6451 18.3413 34.7464 17.6218 34.73 16.9002C34.7697 16.1384 34.6517 15.3765 34.3832 14.6624C34.1148 13.9483 33.7017 13.2973 33.17 12.7502C32.2452 11.855 31.0493 11.2922 29.77 11.1502L29.79 11.1602ZM17.84 11.1602C17.0221 11.0886 16.2006 11.0652 15.38 11.0902C13.24 11.2702 11.86 11.9902 11.27 13.2302C11.0084 13.8201 10.9083 14.4689 10.98 15.1102C10.9914 15.6802 11.17 16.2342 11.4936 16.7035C11.8171 17.1729 12.2714 17.5368 12.8 17.7502C13.7527 18.1529 14.7674 18.3897 15.8 18.4502C16.5214 18.4542 17.2326 18.6217 17.88 18.9402C17.973 18.9886 18.0488 19.0645 18.0971 19.1576C18.1454 19.2506 18.1639 19.3563 18.15 19.4602C18.15 20.0902 17.47 20.3602 15.98 20.3202C15.2549 20.3576 14.5298 20.2452 13.85 19.9902L13.73 19.9402V19.2602H10.98V22.5902H12.45C13.1442 22.5801 13.8386 22.6068 14.53 22.6702C15.9072 22.851 17.3043 22.8138 18.67 22.5602C19.4992 22.4145 20.2715 22.0405 20.9 21.4802C21.3939 21.0136 21.7147 20.393 21.81 19.7202C21.8866 19.1639 21.8629 18.5982 21.74 18.0502C21.6048 17.4946 21.3051 16.9927 20.88 16.6102C20.5727 16.367 20.2369 16.1622 19.88 16.0002C19.0076 15.6834 18.0957 15.4883 17.17 15.4202C15.5 15.2102 15.17 15.1202 14.82 14.8102C14.7485 14.7441 14.6934 14.6622 14.6589 14.5712C14.6244 14.4801 14.6115 14.3823 14.6212 14.2854C14.6309 14.1885 14.6629 14.0951 14.7148 14.0127C14.7666 13.9303 14.8368 13.861 14.92 13.8102C15.378 13.5506 15.9075 13.4454 16.43 13.5102C17.1417 13.4932 17.8504 13.6085 18.52 13.8502L18.71 13.9202V14.3002V14.6802H21.42V11.2802H19.9C19.1954 11.3075 18.4897 11.2774 17.79 11.1902L17.84 11.1602ZM19.33 3.99023H18.76C18.2104 3.95907 17.6595 3.95907 17.11 3.99023C15.6518 4.16859 14.2347 4.59471 12.92 5.25023C11.1841 6.10807 9.66065 7.34116 8.45998 8.86023C8.16998 9.22023 7.66998 9.92023 7.66998 9.95023C7.8261 9.96871 7.98386 9.96871 8.13998 9.95023H8.60998L8.79998 9.68023C9.32281 8.99373 9.90869 8.35763 10.55 7.78023L10.71 7.63023L11.3 7.78023C12.3117 8.02348 13.3368 8.20713 14.37 8.33023L14.73 8.39023C14.7331 8.50101 14.709 8.61087 14.66 8.71023C14.5329 9.09437 14.4261 9.4849 14.34 9.88023C14.34 9.93023 14.34 9.93023 14.73 9.93023H15.13L15.22 9.61023C15.33 9.21023 15.56 8.49023 15.58 8.48023C15.7463 8.46584 15.9136 8.46584 16.08 8.48023C17.3242 8.57615 18.5726 8.60619 19.82 8.57023C20.39 8.57023 21.08 8.57023 21.31 8.50023C21.4658 8.47767 21.6241 8.47767 21.78 8.50023C21.78 8.50023 21.96 9.01023 22.07 9.35023C22.07 9.47023 22.16 9.65023 22.17 9.74023L22.23 9.92023H22.62C22.7522 9.94491 22.8878 9.94491 23.02 9.92023C23.02 9.86023 22.82 9.18023 22.71 8.78023C22.6734 8.66876 22.6433 8.55523 22.62 8.44023C22.7615 8.40685 22.9052 8.38345 23.05 8.37023C24.0909 8.24976 25.123 8.06271 26.14 7.81023L26.68 7.67023L26.9 7.87023C27.5212 8.4483 28.0932 9.07714 28.61 9.75023L28.75 9.95023H29.2C29.3493 9.96994 29.5006 9.96994 29.65 9.95023C29.5963 9.84977 29.5362 9.7529 29.47 9.66023C27.7455 7.13815 25.1959 5.29585 22.26 4.45023C21.3176 4.18132 20.3484 4.01699 19.37 3.96023L19.33 3.99023ZM-0.0200195 17.1602V-0.00976562H37.28V34.3202H-0.0200195V17.1602ZM18.22 4.74023C18.4425 4.67486 18.6774 4.66344 18.9052 4.70692C19.133 4.75039 19.3472 4.84751 19.53 4.99023C20.0393 5.36219 20.4623 5.83974 20.77 6.39023C21.0286 6.8234 21.2559 7.27455 21.45 7.74023C21.45 7.74023 21.33 7.81023 19.98 7.86023C18.6627 7.90915 17.3437 7.8791 16.03 7.77023C15.88 7.77023 15.87 7.77023 15.88 7.70023L16.17 7.11023C16.5379 6.09572 17.2779 5.25914 18.24 4.77023L18.22 4.74023ZM16.46 4.87023H16.67C16.75 4.87023 16.75 4.87023 16.67 4.98023C16.0567 5.6961 15.5575 6.50224 15.19 7.37023L15.07 7.69023H14.94C13.9435 7.56886 12.9551 7.38854 11.98 7.15023L11.53 7.06023C11.44 7.06023 11.53 6.97023 11.91 6.74023C13.2826 5.81192 14.8313 5.17544 16.46 4.87023ZM20.7 4.99023C20.56 4.83023 20.56 4.83023 21.06 4.93023C22.5968 5.27571 24.0575 5.8993 25.37 6.77023C25.5301 6.86187 25.6809 6.96905 25.82 7.09023C24.7198 7.35534 23.6044 7.55238 22.48 7.68023H22.28L22.17 7.41023C21.9689 6.92811 21.7351 6.46034 21.47 6.01023C21.2383 5.66354 20.9879 5.32971 20.72 5.01023L20.7 4.99023ZM28.18 13.7902C28.5352 13.7455 28.8947 13.7455 29.25 13.7902C29.7211 13.9069 30.1315 14.1959 30.4 14.6002C30.8098 15.2972 30.9916 16.1049 30.92 16.9102C30.9833 17.375 30.9474 17.8479 30.8147 18.2977C30.682 18.7476 30.4554 19.1643 30.15 19.5202C29.9681 19.7123 29.7474 19.8634 29.5026 19.9634C29.2577 20.0634 28.9943 20.1101 28.73 20.1002C28.4435 20.1276 28.1545 20.0972 27.88 20.0108C27.6055 19.9244 27.3511 19.7838 27.1319 19.5973C26.9128 19.4108 26.7333 19.1822 26.6041 18.925C26.475 18.6679 26.3988 18.3874 26.38 18.1002C26.2791 17.4049 26.2589 16.7002 26.32 16.0002C26.52 14.6802 27.13 13.9202 28.18 13.7602V13.7902ZM17.3 26.0702C17.72 26.0702 20.25 26.0702 20.75 26.0702C21.25 26.0702 21.44 26.1202 21.44 26.1802C21.1989 26.7249 20.9216 27.2527 20.61 27.7602C20.2898 28.26 19.8672 28.6861 19.37 29.0102C19.1273 29.1595 18.8442 29.2294 18.56 29.2102C18.2799 29.1935 18.0115 29.0924 17.79 28.9202C17.2253 28.5034 16.7636 27.963 16.44 27.3402C16.208 26.9616 16.0169 26.5593 15.87 26.1402C15.87 26.1402 16.46 26.1402 17.3 26.0502V26.0702ZM14.7 26.2702C14.7696 26.2594 14.8404 26.2594 14.91 26.2702H15.04L15.18 26.6102C15.5316 27.433 15.9997 28.2008 16.57 28.8902C16.66 29.0002 16.73 29.0902 16.71 29.0902C16.5451 29.0692 16.3816 29.0391 16.22 29.0002C15.0215 28.7343 13.8667 28.3 12.79 27.7102C12.38 27.4802 11.55 26.9402 11.48 26.8802C11.41 26.8202 11.57 26.8102 11.98 26.7202C12.65 26.5802 13.24 26.4702 13.98 26.3802L14.64 26.2902L14.7 26.2702ZM22.21 26.4502C22.28 26.2502 22.28 26.2502 22.39 26.2702C22.5 26.2902 22.73 26.2702 23 26.3402C23.81 26.4502 24.81 26.6302 25.66 26.8302H25.82L25.55 27.0302C24.5385 27.7161 23.4384 28.2611 22.28 28.6502C21.7287 28.8326 21.1635 28.9697 20.59 29.0602C20.634 28.9806 20.6877 28.9067 20.75 28.8402C21.023 28.532 21.2642 28.1969 21.47 27.8402C21.7336 27.3793 21.9739 26.9053 22.19 26.4202L22.21 26.4502Z" fill="black" fill-opacity="0.13"/>
</g>
<defs>
<clipPath id="clip0">
<rect width="37.31" height="34.32" fill="white"/>
</clipPath>
</defs>
</svg>
