<svg width="150" height="36" viewBox="0 0 150 36" fill="none" xmlns="http://www.w3.org/2000/svg">
<g clip-path="url(#clip0)">
<path d="M16.6754 35.4676L3.42456 21.0887V35.4676H0V5.64519H3.42456V19.1937L16.255 5.64519H20.5837L7.01728 20.1303L21.0045 35.4676H16.6754Z" fill="#00BD94"/>
<path d="M41.1924 25.2009L35.5759 9.85989L29.9806 25.2009H41.1924ZM42.39 28.457H28.7825L26.2162 35.4676H22.5815L33.7276 5.64519H37.4454L48.5911 35.4676H44.9566L42.39 28.457Z" fill="#00BD94"/>
<path d="M72.7941 5.64519V35.4676H69.9574L54.1824 12.1786V35.4676H50.7578V5.64519H53.5945L69.3694 28.9131V5.64519H72.7941Z" fill="#00BD94"/>
<path d="M102.506 20.5565C102.506 13.8026 97.3952 8.47526 90.6853 8.47526C83.976 8.47526 78.8648 13.8026 78.8648 20.5565C78.8648 27.2891 83.976 32.6159 90.6853 32.6159C97.3952 32.6159 102.506 27.2891 102.506 20.5565ZM75.4609 20.5565C75.4609 11.9931 82.1266 5.11296 90.6851 5.11296C99.2436 5.11296 105.93 11.9931 105.93 20.5565C105.93 29.0981 99.2436 36 90.6851 36C82.1268 36 75.4609 29.0981 75.4609 20.5565Z" fill="#00BD94"/>
<path d="M148.961 27.4535C148.694 27.4535 148.429 27.3506 148.226 27.1449L142.358 21.2024C142.163 21.0049 142.053 20.7375 142.053 20.4578C142.053 20.1781 142.163 19.9108 142.358 19.7133L148.226 13.7694C148.632 13.358 149.29 13.358 149.696 13.7694C150.102 14.1808 150.102 14.8472 149.696 15.2585L144.563 20.4578L149.696 25.6558C150.102 26.0672 150.102 26.7336 149.696 27.1449C149.493 27.3506 149.227 27.4535 148.961 27.4535Z" fill="#F04B6F"/>
<path d="M141.12 35.3965C140.854 35.3965 140.588 35.2936 140.385 35.0879L135.253 29.8886L130.12 35.0879C129.714 35.4993 129.056 35.4993 128.65 35.0879C128.244 34.6766 128.244 34.0102 128.65 33.5988L134.518 27.6549C134.924 27.2436 135.581 27.2436 135.988 27.6549L141.855 33.5988C142.261 34.0102 142.261 34.6766 141.855 35.0879C141.652 35.2936 141.387 35.3965 141.12 35.3965Z" fill="#00BD94"/>
<path d="M135.3 13.6161C135.034 13.6161 134.768 13.5132 134.565 13.3075L128.699 7.36501C128.293 6.95364 128.293 6.28725 128.699 5.87588C129.105 5.46451 129.763 5.46451 130.169 5.87588L135.3 11.0738L140.433 5.87588C140.841 5.46318 141.498 5.46584 141.903 5.87588C142.309 6.28725 142.309 6.95364 141.903 7.36501L136.035 13.3075C135.832 13.5132 135.567 13.6161 135.3 13.6161Z" fill="#00BD94"/>
<path d="M121.593 27.5028C121.326 27.5028 121.061 27.3999 120.858 27.1943C120.452 26.7829 120.452 26.1165 120.858 25.7051L125.991 20.5058L120.858 15.3065C120.452 14.8952 120.452 14.2288 120.858 13.8174C121.264 13.406 121.922 13.406 122.328 13.8174L128.196 19.7613C128.602 20.1726 128.602 20.839 128.196 21.2504L122.328 27.1943C122.125 27.3999 121.859 27.5028 121.593 27.5028Z" fill="#00BD94"/>
<path d="M121.633 35.3978C121.367 35.3978 121.101 35.295 120.898 35.0893C120.492 34.6779 120.492 34.0115 120.898 33.6001L148.226 5.91854C148.632 5.50717 149.289 5.50717 149.696 5.91854C150.102 6.32991 150.102 6.9963 149.696 7.40767L122.368 35.0893C122.165 35.295 121.9 35.3978 121.633 35.3978Z" fill="#00BD94"/>
<path d="M148.919 35.3183C148.652 35.3183 148.387 35.2154 148.184 35.0098L120.923 7.39383C120.517 6.98247 120.517 6.31607 120.923 5.9047C121.329 5.49333 121.987 5.49333 122.393 5.9047L149.654 33.5206C150.06 33.932 150.06 34.5984 149.654 35.0098C149.451 35.2154 149.185 35.3183 148.919 35.3183Z" fill="#00BD94"/>
<path d="M40.4701 1.79766C40.2815 1.98868 40.0222 2.10602 39.7351 2.10602H31.4378C30.8636 2.10602 30.3984 1.63481 30.3984 1.05309C30.3984 0.471376 30.8636 0.000167847 31.4378 0.000167847H39.7351C40.3093 0.000167847 40.7745 0.471376 40.7745 1.05309C40.7745 1.34379 40.6586 1.60664 40.4701 1.79766Z" fill="#00BD94"/>
</g>
<defs>
<clipPath id="clip0">
<rect width="150" height="36" fill="white"/>
</clipPath>
</defs>
</svg>
