<svg width="37" height="37" viewBox="0 0 37 37" fill="none" xmlns="http://www.w3.org/2000/svg">
<g clip-path="url(#clip0)">
<path fill-rule="evenodd" clip-rule="evenodd" d="M15.1907 19.4906C15.1029 20.4255 14.1919 20.7885 13.259 20.7005C13.0412 20.6938 12.8277 20.6384 12.6341 20.5382C12.4405 20.438 12.2717 20.2957 12.1401 20.1217C12.0085 19.9477 11.9175 19.7463 11.8737 19.5325C11.8299 19.3186 11.8344 19.0976 11.887 18.8857C12.0296 17.9728 12.8199 17.5548 13.8407 17.6648C14.0561 17.6731 14.267 17.7294 14.4579 17.8297C14.6489 17.93 14.8151 18.0717 14.9444 18.2445C15.0738 18.4173 15.163 18.6169 15.2056 18.8287C15.2482 19.0405 15.2431 19.2591 15.1907 19.4686V19.4906ZM19.7567 6.43505C19.8555 6.78701 20.2067 7.8539 20.3385 8.22786L21.9519 13.1773C21.9783 13.253 22.0002 13.3301 22.0178 13.4083C22.0178 13.5183 22.0178 13.5953 22.1056 13.6173H33.4877C33.6523 13.6173 33.4877 13.6173 33.5535 13.6173C33.6971 14.0049 33.8145 14.4017 33.9048 14.8051C34.2266 16.1963 34.3668 17.6234 34.3218 19.0507C34.205 22.3742 33.0537 25.5777 31.0291 28.2127C30.9083 28.3447 30.7986 28.5097 30.6778 28.6526C30.6102 28.7173 30.5479 28.7872 30.4912 28.8616C30.008 29.4174 29.4872 29.9392 28.9326 30.4235L28.8448 30.5114L27.868 31.2594L27.0228 28.6746L25.585 29.6755L27.7802 31.2814L27.0119 31.8203C26.1783 32.3535 25.2963 32.8064 24.3776 33.1732C23.0199 33.7482 21.5848 34.1188 20.1189 34.273C19.1771 34.3613 18.229 34.3613 17.2871 34.273C15.2508 34.1326 13.2641 33.5788 11.4479 32.6452C11.1196 32.484 10.8008 32.3041 10.493 32.1063C11.0967 31.9193 12.304 31.4353 12.9626 31.1824L13.7748 30.8524C13.9662 30.9916 14.1461 31.1461 14.3127 31.3144C14.4444 31.4793 14.6749 31.6663 14.8395 31.8313L15.1907 32.1063L15.2566 32.1833L15.981 32.7662C16.1865 32.8968 16.381 33.0439 16.5627 33.2062C16.9815 33.5096 17.4442 33.747 17.9347 33.9101C18.0794 33.942 18.2261 33.964 18.3738 33.9761L18.8457 34.0641C18.8457 34.0641 18.8457 34.0641 18.7689 33.9981C18.7402 34.006 18.7098 34.006 18.6811 33.9981L18.1213 33.7891C17.5754 33.4212 17.0547 33.017 16.5627 32.5792L15.3663 31.5123C15.067 31.2999 14.7555 31.1052 14.4334 30.9294C14.3169 30.8798 14.2064 30.8171 14.1041 30.7424C14.2029 30.6764 14.4114 30.6104 14.5212 30.5334C14.631 30.4565 14.7297 30.4675 14.9712 30.5334C15.9481 31.0284 16.431 31.3364 17.5506 31.7983C18.5077 32.2096 19.5155 32.4907 20.547 32.6342C20.8763 32.6342 21.2056 32.6342 21.6446 32.6342H21.7105C21.7763 32.6342 21.7105 32.6342 21.7763 32.6342C21.3153 32.4802 21.1726 32.5022 20.8982 32.4032L18.5713 31.3034C18.3237 31.1684 18.0669 31.0508 17.803 30.9514L17.0127 30.6214C16.5926 30.4648 16.1639 30.3326 15.7286 30.2255C15.5968 30.2255 15.3883 30.2255 15.2456 30.1375C15.4994 29.9643 15.7818 29.8377 16.0798 29.7635L16.9688 30.1375C18.2327 30.6314 19.5524 30.9676 20.8982 31.1384C21.6622 31.1957 22.4304 31.1476 23.1812 30.9954C23.1812 30.9954 23.1812 30.9294 22.9727 30.9954H22.7312C22.2747 31.0351 21.8148 30.979 21.3812 30.8304C20.3604 30.5554 19.4823 30.1815 18.3189 29.8515C18.0335 29.7855 17.7811 29.7085 17.5067 29.6645C17.2323 29.6205 16.892 29.5985 16.5957 29.5436C16.5957 29.5436 17.342 29.1476 17.3859 29.1476C17.4298 29.1476 18.0884 29.4776 18.1981 29.5216C18.4835 29.6425 18.7579 29.7635 19.0652 29.8735L19.9433 30.2255C20.9018 30.5889 21.9152 30.7861 22.9398 30.8084C23.1044 30.8084 23.269 30.7094 23.4337 30.6874H23.6861C23.8508 30.6874 23.8947 30.6874 23.9496 30.6214C23.4117 30.5005 23.313 30.7534 22.2702 30.3575L20.1738 29.5655C19.6801 29.3799 19.1739 29.2292 18.6591 29.1146C18.3744 29.0867 18.092 29.0389 17.814 28.9716C17.8908 28.8836 18.0335 28.8616 18.1433 28.7846C18.253 28.7076 18.3299 28.6197 18.4945 28.6966C18.6591 28.7736 18.9774 28.8836 19.2409 28.9936C20.8543 29.7172 22.6109 30.0632 24.3776 30.0055H24.9374C24.7947 29.8955 24.2569 30.0055 24.191 29.8735C23.7568 29.7757 23.331 29.6433 22.9178 29.4776C22.5227 29.3346 22.0727 29.1916 21.6556 29.0596C20.7685 28.7029 19.8234 28.5127 18.8677 28.4987C18.8677 28.4987 19.186 28.1907 19.4494 28.2897C20.1043 28.526 20.7711 28.7279 21.447 28.8946C22.1689 29.0719 22.9025 29.1969 23.6422 29.2686C23.9091 29.2551 24.1766 29.2551 24.4435 29.2686H24.652C25.0713 29.2177 25.4712 29.0627 25.8155 28.8176C25.6107 28.8066 25.4056 28.8066 25.2008 28.8176C24.6688 28.8117 24.1404 28.7302 23.6313 28.5757C23.3094 28.5236 22.9906 28.4539 22.6763 28.3667C22.048 28.1915 21.4051 28.0737 20.7555 28.0147C20.3275 28.0147 19.8445 28.0147 19.6579 28.0147C19.7814 27.918 19.9137 27.8333 20.0531 27.7617C20.1134 27.6967 20.19 27.6491 20.275 27.6239C20.36 27.5988 20.4501 27.597 20.536 27.6188C20.9092 27.6958 21.2385 27.8057 21.6336 27.9047C22.3473 28.1394 23.0828 28.3015 23.8288 28.3887C24.4998 28.4656 25.1774 28.4656 25.8484 28.3887C26.4471 28.3341 27.0349 28.1933 27.5936 27.9707C27.1545 27.9047 26.6167 27.8497 26.1557 27.8057C25.6767 27.7855 25.1999 27.7304 24.7288 27.6408C24.4123 27.6227 24.0971 27.586 23.7849 27.5308C23.2471 27.4538 20.9421 27.3878 20.8214 27.3218C20.9365 27.2306 21.0617 27.1531 21.1946 27.0908C21.3812 26.9698 21.4361 26.9918 21.6666 27.0138C21.897 27.0358 22.3141 27.1788 22.6654 27.2228L23.763 27.3878C24.1252 27.4531 24.4925 27.4863 24.8606 27.4868C25.7343 27.5829 26.6183 27.4698 27.4399 27.1568C27.6764 27.0682 27.9073 26.9653 28.1314 26.8488C27.6485 26.8488 27.6046 27.0908 26.6277 27.0138C26.3643 27.0138 26.1118 27.0138 25.8594 26.9258C25.6086 26.9105 25.3592 26.8775 25.113 26.8268C24.2612 26.6799 23.3979 26.61 22.5337 26.6179C22.2448 26.6327 21.9554 26.6327 21.6666 26.6179C21.8477 26.4373 22.0759 26.3116 22.3251 26.2549C22.5776 26.2549 22.9946 26.2549 23.2471 26.2549C23.9097 26.3378 24.577 26.3783 25.2447 26.3759C25.9291 26.3261 26.6104 26.2417 27.2863 26.1229C27.5973 26.0628 27.9022 25.9744 28.1973 25.859L29.0095 25.54C28.8281 25.5388 28.6474 25.561 28.4717 25.606C27.8915 25.6674 27.3066 25.6674 26.7265 25.606C25.9143 25.606 25.124 25.606 24.3337 25.606C24.0385 25.6247 23.745 25.6651 23.4556 25.727C23.3198 25.7404 23.1867 25.7738 23.0605 25.826H22.852C22.5446 25.8919 22.7093 25.826 22.6654 25.826L22.9398 25.639C23.0605 25.562 23.0825 25.496 23.2471 25.496C23.4117 25.496 23.9386 25.496 24.1471 25.496C24.2926 25.4729 24.4407 25.4729 24.5862 25.496C26.0569 25.4636 27.513 25.1963 28.8997 24.7041C29.3129 24.5537 29.7161 24.3774 30.1071 24.1761C29.823 24.2456 29.547 24.3452 29.2839 24.4731C28.6139 24.6248 27.9292 24.7023 27.2423 24.7041C26.8911 24.7041 26.5179 24.7811 26.1447 24.7811C25.7099 24.8076 25.2772 24.8627 24.8496 24.9461L24.213 25.056C24.0374 25.056 23.7959 25.199 23.6313 25.221L23.8508 25.012C23.9166 25.012 23.9605 24.8911 24.0813 24.8691C24.202 24.8471 24.5642 24.8691 24.8276 24.8691L26.1667 24.6821H26.2216H26.474C27.4929 24.4913 28.4749 24.1386 29.3827 23.6372C29.5315 23.541 29.6854 23.4528 29.8437 23.3732L30.2607 23.1862C30.3376 23.1862 30.2607 23.1862 30.3156 23.1862C30.0752 23.2325 29.8399 23.3025 29.6132 23.3952C29.3885 23.4829 29.1573 23.5528 28.9217 23.6042C28.4269 23.7471 27.9197 23.8428 27.407 23.8902C27.7068 23.7508 28.0192 23.6403 28.3399 23.5602C28.9243 23.3261 29.4894 23.0466 30.0302 22.7243C30.2259 22.5853 30.4356 22.4674 30.6559 22.3723C30.6937 22.3663 30.7298 22.3524 30.7619 22.3316C30.7941 22.3108 30.8215 22.2834 30.8425 22.2513C30.5614 22.3036 30.2884 22.3924 30.0302 22.5153C29.2302 22.7948 28.4076 23.0046 27.5716 23.1422C27.868 22.9993 28.2412 22.8783 28.5704 22.7463C29.2823 22.4565 29.948 22.0637 30.5461 21.5804C30.7231 21.4117 30.91 21.2538 31.1059 21.1075C30.9043 21.1948 30.7098 21.2977 30.5242 21.4154C29.4655 21.8901 28.3625 22.2585 27.2314 22.5153C27.0094 22.574 26.7928 22.6513 26.5838 22.7463C26.3956 22.8495 26.2013 22.9414 26.0021 23.0213C26.1118 22.7683 26.2765 22.7683 26.6057 22.6803C27.3174 22.4422 28.0077 22.1442 28.6692 21.7894C29.2974 21.4463 29.8991 21.0565 30.4693 20.6235L30.9522 20.1616C30.7603 20.2419 30.5734 20.3337 30.3925 20.4365C29.5144 20.9535 28.4387 21.3054 27.4838 21.7454C27.1076 21.9277 26.7413 22.1296 26.3862 22.3503C26.496 22.0974 26.7375 22.0204 26.946 21.9104C27.687 21.4886 28.4018 21.0222 29.0863 20.5135L30.0083 19.6666C30.3217 19.3744 30.5688 19.018 30.7327 18.6217C30.612 18.6877 30.4364 18.9737 30.3156 19.0837C30.0123 19.3675 29.6855 19.6251 29.3388 19.8536L27.7802 20.8765C27.5936 20.9975 27.4509 21.1185 27.2643 21.2505C27.1271 21.4005 26.9723 21.5335 26.8033 21.6464C26.8621 21.541 26.9403 21.4477 27.0338 21.3714C27.3863 21.0732 27.7131 20.7458 28.0107 20.3925C28.1973 20.1616 28.4278 19.9746 28.6143 19.7656C29.2618 18.9913 29.8316 18.155 30.3156 17.2689C30.1949 17.2689 29.9863 17.5438 29.8985 17.6428C29.7505 17.7574 29.6177 17.8905 29.5034 18.0388C28.9932 18.4516 28.5161 18.904 28.0765 19.3916C28.0306 19.4651 27.9793 19.535 27.9229 19.6006C27.6594 19.8976 27.3631 20.4365 27.2643 20.5355C27.4075 20.0418 27.5797 19.557 27.7802 19.0837C27.868 18.7867 28.1534 17.6428 27.7802 17.4559C27.7802 17.8078 27.9009 17.8958 27.7802 18.2698C27.721 18.495 27.6363 18.7127 27.5277 18.9187C27.598 18.4745 27.6017 18.0222 27.5387 17.5768L27.3302 16.7629C27.3197 16.7158 27.3197 16.667 27.3302 16.62C27.3302 16.488 27.3302 16.532 27.3302 16.51C27.2584 17.0723 27.2584 17.6415 27.3302 18.2038V19.1167C27.3658 19.3758 27.3395 19.6397 27.2533 19.8866C27.2533 19.8866 27.1655 19.2047 27.1436 19.0947C27.0292 18.6407 26.832 18.2119 26.5618 17.8298C26.496 17.7198 26.3094 17.3459 26.2106 17.3019C26.2765 17.4889 26.3533 17.7198 26.4411 17.9068C26.5289 18.0938 26.6057 18.2808 26.7045 18.4678C26.8736 18.907 26.9664 19.372 26.9789 19.8426C27.0393 20.0845 27.0393 20.3376 26.9789 20.5795C26.7475 21.1414 26.4684 21.6823 26.1447 22.1963C26.1447 22.0754 26.3094 21.8004 26.3533 21.6574C26.4835 21.2564 26.5754 20.8439 26.6277 20.4255C26.6568 20.2546 26.6751 20.0819 26.6826 19.9086C26.6826 19.7656 26.6826 19.8206 26.6277 19.7656C26.5582 20.4182 26.3684 21.0522 26.0679 21.6354C25.9963 21.8004 25.9041 21.9556 25.7935 22.0974C25.8306 22.0026 25.8746 21.9107 25.9252 21.8224C26.2547 21.1333 26.4449 20.3857 26.485 19.6226C26.3674 19.9653 26.2685 20.3141 26.1887 20.6675C26.1118 20.8325 25.8594 21.4814 25.7935 21.5804C25.8813 21.1075 26.2545 20.6675 26.2106 20.1286C26.1426 20.2737 26.0875 20.4246 26.046 20.5795C25.8744 21.0004 25.6802 21.4116 25.4642 21.8114C25.3216 22.0424 24.7179 23.1862 24.5862 23.3732L25.2337 22.0424C25.4606 21.5889 25.6408 21.1135 25.7716 20.6235C25.6728 20.7115 25.3216 21.4594 25.2337 21.6024L24.9484 22.0864C24.8606 22.2513 24.7618 22.3943 24.674 22.5593C24.5862 22.7243 24.3227 23.2082 24.1581 23.5382L23.741 24.2531C23.6313 24.4401 23.6532 24.4181 23.5764 24.4731L23.6971 24.2311C24.3018 23.2031 24.8089 22.1204 25.2118 20.9975C25.113 21.0855 25.0911 21.2944 24.9813 21.3714C24.8715 21.4484 24.9813 21.4374 24.9264 21.5034L24.4435 22.3723C24.2569 22.6693 24.0483 22.9993 23.8837 23.3292C23.6375 23.8248 23.3512 24.2994 23.0276 24.7481C22.9727 24.8141 22.9288 24.8911 22.8629 24.979C22.7971 25.067 22.7642 25.122 22.6763 25.188C22.7123 25.1136 22.7565 25.0435 22.8081 24.979C23.3088 24.2212 23.7527 23.4271 24.1361 22.6033C24.3173 22.3072 24.4507 21.9842 24.5313 21.6464L24.0483 22.4383C23.7191 22.9553 23.4666 23.5382 23.1373 24.0002C22.5766 24.8355 21.9567 25.6295 21.2824 26.3759L20.986 26.7059L20.8434 26.8598L20.6787 27.0028L20.547 27.1458C20.4702 27.2118 20.3055 27.4208 20.2397 27.4428C20.1738 27.4648 20.4043 27.2558 20.4702 27.1678C20.536 27.0798 20.8653 26.7279 20.986 26.6069C21.0319 26.5671 21.0692 26.5185 21.0958 26.4639L21.6995 25.749C21.8641 25.54 21.9849 25.353 22.1495 25.144C22.3141 24.935 22.4458 24.6931 22.5666 24.4841C22.6889 24.2645 22.8284 24.0548 22.9837 23.8572C23.1264 23.6482 23.2581 23.4392 23.4008 23.2082C23.5434 22.9773 23.5215 22.9773 23.5873 22.8563C23.6532 22.7353 23.752 22.6033 23.73 22.5043C23.5434 22.7353 23.3569 22.9993 23.1922 23.2302C23.1006 23.3497 23.0163 23.4745 22.9398 23.6042C22.6965 23.9849 22.4327 24.3521 22.1495 24.7041L21.6336 25.342C21.6336 25.342 21.6336 25.342 21.5678 25.408L21.1946 25.848L21.1178 25.9469L19.8226 27.3658C19.7954 27.399 19.7732 27.4361 19.7567 27.4758C19.7184 27.5316 19.6742 27.5833 19.625 27.6298C19.625 27.7068 19.5262 27.7507 19.4823 27.8167C19.4667 27.851 19.4439 27.8814 19.4155 27.9061C19.3871 27.9307 19.3537 27.949 19.3177 27.9597C19.2518 27.9597 19.2079 28.0587 19.1311 28.0587C19.1626 28.0105 19.2037 27.9693 19.2518 27.9377L19.9433 27.2338C19.9865 27.1926 20.0268 27.1485 20.0641 27.1018L20.8104 26.1889C20.8474 26.1465 20.8771 26.0982 20.8982 26.0459L21.6007 25.111C21.7653 24.9351 22.5337 24.0881 22.369 23.8132C22.2922 23.8792 22.1605 24.1871 22.0397 24.3191L21.7873 24.6271L21.6446 24.7701C21.5019 24.9021 21.3922 25.089 21.2714 25.21L20.2616 26.3759C20.2258 26.434 20.1769 26.483 20.1189 26.5189L19.4714 27.2668C19.4268 27.3185 19.3865 27.3737 19.3506 27.4318L18.703 28.1687C18.5857 28.3321 18.4147 28.4489 18.2201 28.4987C18.3079 28.3777 18.725 27.9817 18.8896 27.7947L19.0104 27.6848C19.1421 27.5418 19.4055 27.2118 19.5372 27.0798C19.9872 26.6069 20.6348 25.65 20.8214 25.419C20.8214 25.353 20.8873 25.353 20.9421 25.309L21.0519 25.188C21.1726 25.045 21.469 24.6271 21.3592 24.4401L21.1726 24.8141C21.0745 24.9734 20.9682 25.1276 20.8543 25.276C20.7775 25.342 20.7555 25.342 20.7116 25.408L20.569 25.551L20.0641 26.1339C19.9489 26.2882 19.8242 26.4351 19.6909 26.5739L19.175 27.1568C18.9884 27.3878 18.7579 27.5748 18.5713 27.8167C18.3847 28.0587 18.1103 28.3447 17.9018 28.6087C17.7153 28.8052 17.4807 28.9493 17.2213 29.0266C17.2213 28.9056 17.4847 28.8176 17.5506 28.7186L18.5494 27.6958C18.7579 27.4868 18.9226 27.2558 19.1311 27.0248L19.8994 26.0899C20.074 25.8529 20.2608 25.6253 20.4592 25.408L20.8104 24.968L20.8543 24.9461C20.997 24.7811 21.1287 24.5941 21.2714 24.4511C21.4873 24.2511 21.669 24.0171 21.8092 23.7582C21.6007 23.9122 21.458 24.1211 21.2495 24.2861C21.0409 24.4511 21.0409 24.5281 20.8982 24.6381C20.7555 24.7481 20.8104 24.7591 20.7336 24.8251L19.197 26.4859C19.0982 26.5959 18.9555 26.7169 18.8457 26.8488C18.5604 27.1788 18.286 27.4648 18.0116 27.7617L16.7932 29.1586C16.7418 29.2478 16.6722 29.3253 16.589 29.3859C16.5058 29.4465 16.4109 29.489 16.3103 29.5106C16.3761 29.3676 16.7713 29.0926 16.892 28.9496L17.0347 28.7846L17.1664 28.6526C17.3146 28.5033 17.4538 28.3454 17.5835 28.1797L19.5153 25.804C19.7019 25.573 20.4702 24.7041 20.3824 24.4071C20.3275 24.4071 20.3055 24.5501 20.2616 24.6161C20.2306 24.6895 20.1815 24.7538 20.1189 24.8031C20.0699 24.8616 20.0259 24.9242 19.9872 24.99L19.8445 25.155C19.8445 25.155 19.8445 25.155 19.7458 25.243C19.647 25.331 19.7458 25.243 19.6799 25.342L19.5372 25.507C19.5207 25.54 19.4984 25.5698 19.4714 25.595L19.3067 25.76C19.3067 25.76 19.3067 25.76 19.2409 25.826L17.8908 27.4098C17.5615 27.8277 17.1664 28.2017 16.7932 28.6197L16.5627 28.9056C16.5627 28.9056 16.5627 28.9056 16.4969 28.9716L16.3322 29.1366C16.2878 29.1943 16.2402 29.2493 16.1895 29.3016C16.1237 29.3676 16.1237 29.3896 16.0578 29.4666C15.992 29.5436 15.959 29.5765 15.9151 29.6535C15.7895 29.7526 15.6486 29.8306 15.4981 29.8845C15.5766 29.7948 15.6609 29.7103 15.7505 29.6315C16.0359 29.3676 16.2444 29.1146 16.5188 28.8616L17.1225 28.1797C17.1225 28.1797 17.1225 28.1797 17.1884 28.1137L17.8908 27.2778C17.8908 27.2778 17.8908 27.2228 17.8908 27.2008L18.3628 26.6399C18.4945 26.4859 19.1531 25.661 19.0543 25.32C18.9884 25.408 19.0543 25.386 18.9665 25.507C18.84 25.7565 18.6731 25.9832 18.4725 26.1779L18.0555 26.6399C18.0555 26.6949 18.0555 26.6949 17.9896 26.7169C17.7811 26.9258 17.4298 27.4098 17.2432 27.5968C17.0566 27.7837 16.9908 27.9047 16.8261 28.0697L16.5408 28.3887L16.4639 28.5757C16.3133 28.7187 16.1739 28.8732 16.0469 29.0376C16.011 29.0957 15.9622 29.1447 15.9042 29.1806L15.7615 29.3456C15.5529 29.5985 15.3224 29.8845 15.0919 30.1155C14.9781 30.2102 14.8421 30.2745 14.6968 30.3025C14.6968 30.1815 14.8505 30.1375 14.9273 30.0715L15.9481 28.9716C16.6128 28.2576 17.1576 27.4405 17.5615 26.5519C17.6384 26.3649 17.7042 25.9249 17.5615 25.804C17.5615 26.2439 17.6274 26.2989 17.4188 26.6399C17.2993 26.8543 17.1596 27.0569 17.0018 27.2448C16.67 27.7467 16.3032 28.2246 15.9042 28.6746L15.1907 29.4886L14.7188 30.0495C14.5651 30.2585 14.4444 30.4455 14.137 30.4675L14.7956 29.7635C15.101 29.4632 15.387 29.1435 15.6517 28.8066L16.0688 28.3227C16.1468 28.2458 16.2167 28.161 16.2773 28.0697C16.5847 27.6408 17.3749 26.9698 17.3749 26.4089C17.3749 26.4089 17.3749 26.4089 17.3201 26.4089C17.3142 26.4268 17.3142 26.446 17.3201 26.4639V26.5299L17.2323 26.6729C17.1115 26.8818 16.9688 26.9918 16.8591 27.1788C16.7493 27.3658 16.7164 27.3218 16.6505 27.4098L16.1127 27.9927C15.9481 28.1577 15.5749 28.6746 15.4322 28.8616L15.0371 29.3456C14.7407 29.7195 14.4114 30.0495 14.137 30.4455C14.137 30.4455 14.137 30.5114 14.0383 30.5554C13.9568 30.6329 13.8532 30.6829 13.7419 30.6984C13.5334 30.7974 13.3248 30.8634 13.1163 30.9514C12.2492 31.2814 11.393 31.5893 10.504 31.8643C10.3613 31.8643 10.2735 31.9633 10.1528 31.8643C9.88214 31.7064 9.62514 31.5261 9.38444 31.3254C9.52713 31.1934 10.3942 30.5884 10.5479 30.4675L12.8748 28.7626L14.0383 27.9267C14.137 27.8607 14.2248 27.7837 14.3456 27.7177L18.3957 24.7591L18.6701 24.5501C18.8348 24.6601 18.9994 24.8031 19.186 24.9241C19.4233 24.7791 19.6473 24.6135 19.8555 24.4291C19.4768 24.1211 19.081 23.8346 18.6701 23.5712L18.3408 23.8022L15.4651 25.9029L13.5553 27.2998L11.5796 28.7406C11.4589 28.8176 11.3711 28.9056 11.2504 28.9716C11.146 29.0593 11.036 29.1402 10.9211 29.2136L13.1163 22.5153H12.0736L9.18687 31.3144C8.93099 31.1499 8.6854 30.9699 8.45148 30.7754L7.91366 30.3135L6.37702 28.7296L6.31117 28.5757C6.26034 28.5197 6.2127 28.461 6.16848 28.3997L5.60871 27.6518C5.15135 27.0133 4.74403 26.3404 4.39037 25.639C4.39037 25.639 4.39037 25.573 4.29159 25.507L4.22573 25.364C4.22573 25.243 4.12695 25.155 4.08304 25.056C3.79939 24.4148 3.56456 23.753 3.38058 23.0763C3.08373 22.0982 2.88879 21.0919 2.79886 20.0736C2.66719 18.9335 2.66719 17.782 2.79886 16.6419C2.91361 15.6434 3.13062 14.6593 3.44644 13.7053C3.56717 13.7823 3.65498 13.8702 3.77572 13.9472L5.97091 15.5531L6.59654 16.015L8.17708 17.1149C8.23977 17.1433 8.29585 17.1845 8.34172 17.2359C8.39511 17.2643 8.44335 17.3014 8.48441 17.3459C8.65281 17.1328 8.80681 16.9086 8.9454 16.6749L8.17708 16.136L7.44169 15.5751L6.3441 14.7392C6.26726 14.7392 6.22336 14.6402 6.1575 14.5962L5.97091 14.4532H11.5796C11.6455 14.4532 11.7333 14.4532 11.7882 14.4532C11.8431 14.4532 15.2785 14.4532 15.5529 14.4532C15.5529 14.2222 16.9688 10.0537 17.0237 9.86668C17.2542 9.16276 17.5506 8.26085 17.7591 7.57893L18.4835 5.37917C18.4835 5.29118 18.4835 5.37917 18.4835 5.31317C18.714 6.08309 18.9774 6.85301 19.2299 7.61193C19.4823 8.37084 19.7238 9.15176 19.9763 9.89968C20.2287 10.6476 20.4592 11.4175 20.7226 12.1874L21.4251 14.2772C21.4251 14.3542 21.4251 14.4862 21.5458 14.5302H31.0839L30.3156 15.0911C30.0522 15.2781 29.7997 15.4651 29.5693 15.6521L28.4717 16.488C28.3431 16.5682 28.2251 16.6643 28.1204 16.7739L28.5924 17.4229C28.7022 17.4229 29.69 16.609 29.8656 16.521L30.4912 16.048C30.6998 15.883 30.9083 15.751 31.1278 15.5861L32.9279 14.2002C33.1369 14.0351 33.357 13.8844 33.5865 13.7493C33.5865 13.6833 33.5865 13.7493 33.5865 13.6833C33.4849 13.2751 33.3453 12.8774 33.1694 12.4954C32.5649 11.0345 31.7434 9.67355 30.7327 8.45883L30.5461 8.24986C30.523 8.20543 30.489 8.16759 30.4473 8.13987L30.151 7.8099C29.9026 7.51703 29.631 7.24484 29.3388 6.99599L28.5924 6.34706C28.5924 6.34706 28.5156 6.34706 28.4717 6.24807C28.3993 6.18043 28.3223 6.11795 28.2412 6.06109C28.1753 5.9951 28.0985 5.9731 28.0107 5.89611C27.5936 5.59914 27.2423 5.36817 26.8033 5.0822C24.3175 3.57298 21.4669 2.77421 18.5604 2.77245L19.7567 6.57804V6.43505ZM16.5957 15.762C17.8798 15.4981 18.0445 17.0599 17.0896 17.2689C15.7944 17.5768 15.5639 15.971 16.5627 15.762H16.5957ZM21.7324 17.0379C21.7938 17.0524 21.8576 17.0524 21.919 17.0379C21.9355 16.7118 21.9355 16.3851 21.919 16.059C21.8531 16.059 21.8312 16.059 21.7324 16.059V15.85H22.6873C23.0166 15.85 23.291 15.916 23.291 16.268C23.291 16.62 22.7861 16.6639 22.4129 16.6639V17.0819H22.5995V17.2909H21.7105V17.0819L21.7324 17.0379ZM20.0421 17.0379C20.102 17.0618 20.1688 17.0618 20.2287 17.0379V16.059C20.1688 16.0351 20.102 16.0351 20.0421 16.059V15.85H21.5787V16.411H21.3373C21.3373 16.246 21.2714 16.125 21.1507 16.081C21.0063 16.0472 20.8561 16.0472 20.7116 16.081V16.455C20.9421 16.455 20.9202 16.4 20.9751 16.246H21.1287V16.9169C20.8982 16.9169 20.997 16.9169 20.9421 16.7739C20.8873 16.631 20.8324 16.6639 20.7336 16.6859V17.1259C20.8966 17.1588 21.0645 17.1588 21.2275 17.1259C21.3373 17.1259 21.3702 16.9169 21.3702 16.7519H21.6007V17.3569H20.0641V17.1479L20.0421 17.0379ZM17.7811 15.784H18.6262C18.6525 15.9259 18.6891 16.0656 18.736 16.202L18.8787 16.62L19.1311 15.784H19.9653V15.993C19.7567 15.993 19.7787 15.993 19.7787 16.268V16.9059C19.7787 17.0819 19.7787 17.0599 19.9653 17.0599V17.2689H19.175V17.0599C19.4165 17.0599 19.3616 17.0599 19.3616 16.433V16.103L18.9884 17.2689C18.5494 17.2689 18.6701 17.3679 18.4835 16.6859C18.4067 16.51 18.3628 16.29 18.2969 16.081C18.2749 16.3923 18.2749 16.7047 18.2969 17.0159C18.3228 17.0278 18.3508 17.0339 18.3792 17.0339C18.4077 17.0339 18.4357 17.0278 18.4616 17.0159V17.2249H17.803V17.0159C18.0664 17.0159 17.9896 17.0159 17.9896 16.224V16.015C17.9237 16.015 17.9237 16.015 17.803 16.015V15.806L17.7811 15.784ZM14.1041 15.784H14.9273V15.993C14.7627 15.993 14.7627 16.081 14.8066 16.389H15.2017C15.2127 16.305 15.2127 16.22 15.2017 16.136C15.2017 16.015 15.2017 16.015 15.081 15.993V15.784H15.9042V15.993C15.8426 15.9803 15.7791 15.9803 15.7176 15.993C15.6846 16.3185 15.6846 16.6465 15.7176 16.9719C15.7834 16.9719 15.8054 16.9719 15.9042 16.9719V17.1809H15.081V16.9719C15.1578 16.9719 15.1578 16.9719 15.2017 16.9719V16.576H14.8066V16.8729C14.8066 17.0159 14.8066 17.0379 14.9493 17.0379V17.2469H14.1261V17.0379C14.2907 17.0379 14.3127 17.0379 14.3127 16.8729V16.015C14.2527 15.9911 14.186 15.9911 14.1261 16.015V15.806L14.1041 15.784ZM15.0151 21.2834V20.2386H15.3224L16.1347 17.7638H17.1115L17.8798 20.2056C17.9834 20.2384 18.0946 20.2384 18.1981 20.2056C18.3189 20.2056 18.3628 20.2056 18.4067 20.0956C18.4616 19.4588 18.4616 18.8185 18.4067 18.1818C18.2943 18.1598 18.1788 18.1598 18.0664 18.1818V17.7858H19.6689V18.1818C19.3616 18.1818 19.3836 18.1818 19.4165 19.2817C19.4823 19.2267 20.2067 18.4348 20.2067 18.4128C20.2235 18.3441 20.2235 18.2724 20.2067 18.2038C20.1305 18.1902 20.0525 18.1902 19.9763 18.2038V17.8078H21.5897V18.1818C21.5897 18.2478 21.5897 18.1818 21.5348 18.1818C21.2824 18.1818 21.1836 18.1818 21.1836 18.4348C21.1482 19.0181 21.1666 19.6036 21.2385 20.1836C21.3263 20.2606 21.4251 20.2386 21.5568 20.2386V20.6345H19.9104C19.8884 20.4924 19.8884 20.3477 19.9104 20.2056C20.2177 20.2056 20.1409 20.0516 20.1409 19.7656V19.0947L19.3836 19.9306C19.3577 19.9635 19.3437 20.0042 19.3437 20.0461C19.3437 20.088 19.3577 20.1286 19.3836 20.1616C19.4509 20.1859 19.5247 20.1859 19.5921 20.1616V20.5575H18.1652V21.1955H17.7262C17.7262 21.0525 17.7262 20.9865 17.6603 20.8435C17.4957 20.4915 16.9798 20.5575 16.5627 20.5575C15.9151 20.5575 15.4651 20.4695 15.3993 21.1955H14.9602L15.0151 21.2834ZM21.6666 18.1158V17.7858H23.269V18.1818C23.0386 18.1818 23.0166 18.1818 23.0166 18.4348C23.0056 18.6069 23.0056 18.7796 23.0166 18.9517H23.7849C23.7963 18.7796 23.7963 18.6069 23.7849 18.4348C23.7849 18.1818 23.7849 18.2038 23.5325 18.1818V17.7858H25.135V18.2038C25.0182 18.1922 24.9005 18.1922 24.7837 18.2038C24.7506 18.5476 24.7506 18.8938 24.7837 19.2377C24.7837 20.3375 24.7179 20.2606 25.1789 20.2606V20.6565H23.5654V20.2386H23.7739C23.8079 19.9499 23.8079 19.6583 23.7739 19.3697H23.0495C23.0495 20.0736 22.9617 20.2606 23.3129 20.2606C23.3349 20.399 23.3349 20.5401 23.3129 20.6785H21.6995V20.2826C21.8089 20.2946 21.9193 20.2946 22.0288 20.2826C22.0693 19.6856 22.0693 19.0867 22.0288 18.4897C22.0288 18.1818 21.897 18.2698 21.6556 18.2478V18.1818L21.6666 18.1158ZM17.2762 36.7148H17.0676L17.8359 35.054H18.0225L18.6591 36.7588H18.2421L18.0555 36.2748C17.3749 36.2748 17.5176 36.1868 17.3969 36.4948C17.3708 36.5729 17.3338 36.647 17.2871 36.7148H17.2762ZM18.9226 35.109C19.3177 35.109 19.9543 34.944 20.0202 35.3399C20.0476 35.4291 20.0487 35.5243 20.0234 35.614C19.998 35.7038 19.9474 35.7843 19.8775 35.8459C19.8028 35.9036 19.7167 35.9448 19.625 35.9669C19.2299 36.0658 19.3177 35.7799 19.3726 36.7368H18.9994L18.9226 35.109ZM15.4871 36.4838H15.2785L16.2005 34.955H16.3871L16.7603 36.6708L16.3432 36.6048L16.1127 35.3729L15.7834 35.9119C15.6956 36.0658 15.5749 36.2748 15.4871 36.4618V36.4838ZM20.9751 36.5718H20.7885C20.7885 36.4838 20.9312 36.1538 20.9312 36.1098L20.4811 35.5489C20.3244 35.378 20.1778 35.1981 20.0421 35.01H20.4592L20.8763 35.5489C20.9299 35.6064 20.9776 35.669 21.019 35.7359V35.6809C21.108 35.4487 21.1777 35.2096 21.2275 34.966C21.2275 34.867 21.3702 34.889 21.4909 34.867C21.3702 35.2849 21.1836 35.7359 21.0629 36.1758C21.0439 36.3288 20.9994 36.4776 20.9312 36.6158L20.9751 36.5718ZM14.6419 35.2959C14.8139 35.3656 14.9951 35.41 15.1798 35.4279V35.6149L14.6419 35.4499L14.4992 36.0329C14.6747 36.0888 14.8546 36.1293 15.0371 36.1538V36.3408C14.8285 36.3408 14.4114 36.1538 14.148 36.1318L14.5431 34.526L15.4322 34.735V34.922L14.8944 34.757L14.7517 35.2409L14.6419 35.2959ZM23.4227 35.7579V35.9889C23.2939 36.0902 23.1452 36.1632 22.9863 36.203C22.8274 36.2428 22.662 36.2485 22.5007 36.2198C22.3514 36.1881 22.2143 36.1144 22.1054 36.0072C21.9965 35.9 21.9204 35.7639 21.8861 35.6149C21.6995 34.823 22.358 34.405 23.1044 34.515V34.768C22.9837 34.768 22.7093 34.482 22.38 34.768C22.0507 35.054 22.4458 36.3738 23.1483 35.9559C23.3569 35.8129 23.3129 35.7689 23.4008 35.7249L23.4227 35.7579ZM13.1711 34.867C13.3553 34.9091 13.5277 34.9918 13.676 35.109C13.7493 35.1882 13.79 35.2923 13.79 35.4004C13.79 35.5085 13.7493 35.6126 13.676 35.6919C13.3797 36.0329 12.8638 35.6919 12.5236 35.6149L13.0724 34.0531L14.0712 34.405L14.0053 34.592C13.7948 34.4945 13.5786 34.41 13.3577 34.339L13.1711 34.845V34.867ZM23.3569 34.317L23.7081 34.1741L23.9605 34.845C24.1471 34.845 24.3337 34.658 24.5642 34.735C24.6528 34.7765 24.7268 34.8441 24.7762 34.9287C24.8257 35.0132 24.8484 35.1109 24.8412 35.2087C24.8341 35.3065 24.7975 35.3998 24.7363 35.4762C24.675 35.5527 24.5921 35.6087 24.4984 35.6369C24.3174 35.7209 24.1303 35.7908 23.9386 35.8459C23.8727 35.7359 23.7081 35.2629 23.6313 35.087L23.4995 34.68C23.4406 34.5524 23.3928 34.4199 23.3569 34.284V34.317ZM10.0759 33.9211C10.0671 33.8398 10.083 33.7577 10.1215 33.6856C10.1599 33.6134 10.2192 33.5546 10.2915 33.5167C10.3638 33.4788 10.4459 33.4636 10.527 33.4731C10.608 33.4826 10.6843 33.5164 10.746 33.57C10.8076 33.6237 10.8517 33.6947 10.8724 33.7738C10.8932 33.8528 10.8897 33.9364 10.8624 34.0135C10.8351 34.0905 10.7852 34.1576 10.7193 34.2058C10.6535 34.2541 10.5746 34.2814 10.493 34.284C10.4402 34.2901 10.3868 34.2855 10.3358 34.2703C10.2849 34.2552 10.2375 34.23 10.1965 34.1961C10.1555 34.1622 10.1218 34.1204 10.0973 34.0731C10.0728 34.0259 10.0581 33.9742 10.054 33.9211H10.0759ZM27.0777 33.9211C27.0491 34.0249 26.9816 34.1136 26.8893 34.1688C26.797 34.2239 26.687 34.2413 26.5823 34.2172C26.4775 34.193 26.3861 34.1294 26.3271 34.0394C26.2681 33.9494 26.246 33.84 26.2655 33.7341C26.296 33.6341 26.362 33.5488 26.4509 33.4941C26.5398 33.4394 26.6456 33.4191 26.7484 33.4371C26.801 33.4475 26.8508 33.4684 26.8951 33.4986C26.9393 33.5289 26.9769 33.5678 27.0056 33.6131C27.0344 33.6583 27.0536 33.709 27.0622 33.7619C27.0709 33.8149 27.0687 33.869 27.0558 33.9211H27.0777ZM28.5485 31.7213L28.8229 31.5123L29.8217 32.8102C29.6533 32.9664 29.4736 33.1098 29.2839 33.2392L29.0973 33.3711C29.0558 33.3196 29.0191 33.2643 28.9875 33.2062C29.1276 33.1273 29.2599 33.0352 29.3827 32.9312L28.6143 31.9083C28.6143 31.8533 28.5265 31.7873 28.5046 31.7433L28.5485 31.7213ZM7.18925 32.5792C7.37789 32.7295 7.57997 32.8621 7.79292 32.9752C8.06909 32.5926 8.36588 32.2254 8.68198 31.8753L8.95638 32.0843C8.95638 32.1503 8.02342 33.2722 7.95756 33.3821C7.85769 33.2953 7.76585 33.1996 7.68316 33.0962L6.82704 32.4252L7.8478 31.1164L8.13318 31.3254C8.13318 31.4243 7.96854 31.5343 7.92463 31.6333C7.84868 31.7184 7.76807 31.7992 7.68316 31.8753C7.6165 31.9784 7.53925 32.0743 7.45267 32.1613C7.35644 32.2642 7.26837 32.3746 7.18925 32.4912V32.5792ZM6.33312 32.0733C6.11787 31.9016 5.92272 31.706 5.75139 31.4903C5.54285 31.1824 5.86115 30.8304 6.14653 30.8304C6.4319 30.8304 6.58557 31.0394 6.72825 31.1384L7.2112 30.6214C7.30442 30.7038 7.3924 30.792 7.47462 30.8854L6.37702 32.0513L6.33312 32.0733ZM29.7997 30.6434C29.8634 30.7958 29.9112 30.9542 29.9424 31.1164C30.129 31.1164 30.3815 31.2484 30.612 31.3254C30.8435 31.3787 31.0709 31.4485 31.2925 31.5343C31.1769 31.6187 31.0669 31.7106 30.9632 31.8093L30.0741 31.5343C30.129 31.8313 30.2607 32.1173 30.3376 32.3922C30.2773 32.4416 30.2222 32.4969 30.1729 32.5572C30.1729 32.2823 30.0083 31.9303 29.9424 31.6553C29.8693 31.3614 29.7814 31.0714 29.679 30.7864L29.8217 30.6434H29.7997ZM5.25747 29.6755C5.29896 29.7322 5.34684 29.7839 5.40016 29.8295C5.43488 29.8945 5.48362 29.9508 5.54285 29.9945C5.60871 30.0715 5.60871 30.0935 5.67456 30.1595C5.72522 30.2117 5.77286 30.2668 5.81725 30.3245C5.76799 30.3783 5.71275 30.4262 5.65261 30.4675C5.58212 30.3476 5.49735 30.2368 5.40016 30.1375L5.11479 29.8295C4.79648 30.2255 4.84039 30.7644 5.48797 30.7864C5.48797 30.9074 5.40016 30.9074 5.37821 31.0284C5.22907 30.9759 5.09301 30.8917 4.97935 30.7816C4.86569 30.6715 4.7771 30.538 4.71965 30.3905C4.64789 30.234 4.63052 30.058 4.67032 29.8906C4.71011 29.7231 4.80477 29.5738 4.93917 29.4666C5.48797 28.8506 6.35507 29.4666 6.44288 29.9945L6.33312 30.1595C6.33312 30.1595 6.33312 30.2255 6.33312 30.0935C6.32772 29.9951 6.30544 29.8983 6.26726 29.8075C6.22656 29.7131 6.16208 29.6308 6.08014 29.5689C5.99819 29.5069 5.90159 29.4674 5.79979 29.454C5.69799 29.4407 5.59449 29.4542 5.49943 29.493C5.40436 29.5318 5.32099 29.5947 5.25747 29.6755ZM31.1498 29.1806L31.2925 29.0376L32.0827 30.6544C32.0827 30.6544 31.984 30.7424 31.9401 30.7864L31.5449 30.6214L30.7327 30.2805C30.5852 30.2388 30.4419 30.1836 30.3046 30.1155C30.3815 30.1155 30.5461 29.8405 30.59 29.8185C30.9689 29.9942 31.3573 30.1484 31.7535 30.2805L31.3364 29.4226C31.278 29.3331 31.2301 29.2371 31.1937 29.1366L31.1498 29.1806ZM31.6327 29.0706C31.5669 29.0706 31.6327 29.0706 31.5449 28.9936C31.5162 28.97 31.4936 28.9398 31.4791 28.9056C31.5488 28.6021 31.7288 28.3355 31.984 28.1577C32.1312 28.0792 32.2981 28.0455 32.4642 28.0607C32.6302 28.0759 32.7883 28.1394 32.9188 28.2434C33.0494 28.3473 33.1468 28.4872 33.1991 28.6459C33.2514 28.8046 33.2563 28.9752 33.2133 29.1366C33.1183 29.4355 32.9092 29.6846 32.6315 29.8295C32.5657 29.7635 32.4998 29.7195 32.4779 29.6205C32.4559 29.5216 32.6864 29.6205 32.8181 29.5106C33.3779 29.0376 32.4998 28.1577 31.9401 28.4107C31.8343 28.46 31.7462 28.5406 31.6876 28.6416C31.5888 28.8066 31.6327 28.8726 31.5888 29.0596L31.6327 29.0706ZM3.74279 28.0477C3.74279 28.0477 3.74279 28.0477 3.88548 28.0477L4.98307 27.8827V27.9487C4.98307 27.9487 4.4672 28.8396 4.4233 28.9716L5.11479 28.5757C5.19042 28.5233 5.27136 28.479 5.35626 28.4437L5.48797 28.5757C5.48797 28.5757 4.05012 29.3016 3.98426 29.3016C3.91841 29.3016 3.90743 29.2136 3.88548 29.1146C3.86352 29.0156 4.44525 28.1577 4.48916 28.0147L3.23789 28.1797C3.18301 28.0367 3.16106 28.0807 3.13911 27.9927C3.18828 27.9716 3.23991 27.9569 3.29277 27.9487L4.08304 27.2448C4.20378 27.1568 4.29159 27.0358 4.39037 26.9698L4.62087 27.2998C4.43428 27.4318 3.8745 27.9267 3.78669 27.9707L3.74279 28.0477ZM2.76593 27.5308L2.60129 27.2228H2.6891L3.57815 26.7279C3.69889 26.7279 3.8306 26.5629 3.95133 26.5189C4.07207 26.4749 4.06109 26.7499 4.13792 26.8268L3.78669 27.0358L3.43546 27.2448C3.31278 27.3045 3.19529 27.3744 3.08423 27.4538L2.72202 27.6628L2.76593 27.5308ZM32.9828 26.4309L33.1035 26.2439C33.1913 26.3209 34.1023 27.5528 34.2011 27.6958L34.1133 27.8607L32.3242 27.5968C32.3974 27.4779 32.4598 27.3528 32.5108 27.2228L33.0486 27.3438L33.323 26.8598L32.9279 26.4529L32.9828 26.4309ZM2.82081 25.661L3.69889 25.76L3.86352 26.1559L2.90862 26.0349C2.98545 26.5959 2.46958 26.6949 2.28298 26.5519C2.08599 26.3112 1.93694 26.0349 1.84395 25.738L3.34765 25.012C3.40253 25.155 3.44644 25.221 3.49034 25.342C3.53425 25.463 2.93057 25.573 2.82081 25.683V25.661ZM33.8499 24.6821L35.3536 25.364L34.7719 26.6949C34.6621 26.6949 33.7291 26.2219 33.4547 26.1119L33.356 26.0569L33.2682 25.9909L33.3999 25.661L34.728 26.2659C34.8629 26.0587 34.9664 25.8326 35.0353 25.595L33.7072 24.99L33.8499 24.6601V24.6821ZM34.4975 22.6803L36.078 23.0982L35.9902 23.4502L34.3767 23.0763C34.4032 23.0243 34.4216 22.9687 34.4316 22.9113C34.4316 22.8233 34.4316 22.7903 34.4316 22.7243L34.4975 22.6803ZM1.93175 23.3622H1.76711C1.70126 23.2412 1.70126 23.1202 1.60247 23.0763C1.50369 23.0323 0.954892 23.1532 1.14148 23.4502C1.32808 23.7472 1.32808 23.5492 1.49272 23.5932C1.51049 23.6392 1.51049 23.6902 1.49272 23.7362C1.34108 23.6575 1.21993 23.5305 1.14837 23.3751C1.07682 23.2198 1.05895 23.0449 1.09758 22.8783C1.11313 22.7987 1.15333 22.7262 1.21245 22.6709C1.27158 22.6156 1.34661 22.5804 1.42686 22.5703C1.50849 22.566 1.58984 22.5829 1.66296 22.6196C1.73607 22.6562 1.79844 22.7112 1.84395 22.7793C1.84395 22.5263 1.84395 22.4053 2.05249 22.3173C2.42567 22.1524 2.70007 22.4823 2.79886 22.8343C2.85528 23.032 2.85528 23.2415 2.79886 23.4392C2.69229 23.4191 2.59345 23.3696 2.51348 23.2962C2.56016 23.2327 2.58343 23.155 2.57934 23.0763C2.57244 23.0037 2.54393 22.935 2.4975 22.8789C2.45108 22.8228 2.3889 22.7821 2.31905 22.7619C2.24919 22.7417 2.1749 22.7431 2.10583 22.7658C2.03675 22.7885 1.9761 22.8315 1.93175 22.8893C1.82199 23.0323 1.93175 23.1752 1.93175 23.3402V23.3622ZM35.4963 21.1625L36.1987 21.6024C36.2753 21.6624 36.3604 21.7106 36.4512 21.7454C36.4412 21.871 36.3996 21.9921 36.3304 22.0974L35.1231 21.2834C35.0415 21.2263 34.977 21.148 34.9364 21.057C34.8958 20.9659 34.8806 20.8655 34.8926 20.7665C34.8926 20.5575 34.8926 20.5795 35.167 20.5795C35.167 20.8435 35.167 20.9315 35.3316 21.0305C35.3316 20.9535 35.3316 21.0305 35.3316 21.0305C35.3316 21.0305 35.4085 20.9425 35.6609 20.8765L35.9902 20.7775L36.55 20.6125C36.6817 20.6125 36.55 20.6125 36.6378 20.6125V20.9425C36.2789 21.0601 35.9121 21.152 35.5402 21.2175L35.4963 21.1625ZM35.0353 18.6767L36.6597 19.4466V19.6336L34.9585 20.2166V19.7986L35.4633 19.6556V19.0947L34.9804 18.8857V18.6767H35.0353ZM35.0353 17.7198H36.6817C36.6817 18.1158 36.8024 18.6987 36.4292 18.8197C36.3355 18.8513 36.2345 18.8546 36.1389 18.8292C36.0433 18.8037 35.9572 18.7507 35.8914 18.6767C35.7804 18.5037 35.7302 18.2986 35.7487 18.0938H35.0353V17.7418V17.7198ZM34.8487 15.905L36.5939 16.4V16.587L36.2207 16.7959L35.0133 17.4449L34.9585 17.0269L35.4304 16.7959V16.235C35.2654 16.1818 35.0967 16.1414 34.9255 16.114V15.883L34.8487 15.905ZM34.5853 14.6292L36.1439 14.2772C36.1439 14.5302 36.3634 15.0471 36.2426 15.2781C36.2089 15.3236 36.1651 15.3606 36.1146 15.386C36.0641 15.4115 36.0083 15.4248 35.9518 15.4248C35.8952 15.4248 35.8395 15.4115 35.789 15.386C35.7385 15.3606 35.6946 15.3236 35.6609 15.2781C35.5731 15.1681 35.6609 15.1681 35.5182 15.0911C35.5182 15.751 35.0133 15.6521 34.8487 15.5091C34.6448 15.2309 34.53 14.8972 34.5194 14.5522L34.5853 14.6292ZM34.0255 12.8254L35.8146 12.9903V13.1443L34.4426 14.2442L34.3218 13.8702C34.4426 13.7383 34.6292 13.6613 34.7389 13.5513L34.5853 13.0123H34.0694L34.0255 12.8254ZM34.9475 11.2415L35.1341 11.1645L35.5841 12.2644L35.3975 12.3634C35.37 12.225 35.3219 12.0915 35.2548 11.9675L33.8828 12.4954L33.7401 12.1764C33.8828 12.0774 34.8377 11.7475 35.1121 11.6155L34.9255 11.2195L34.9475 11.2415ZM33.5645 9.43773H34.245L34.3767 9.61371H33.4987C33.4252 9.76629 33.3409 9.91333 33.2462 10.0537L32.9279 10.5156L32.7194 10.1636C32.8408 9.97622 32.9508 9.78155 33.0486 9.58071H32.3462L32.2364 9.39373C33.334 9.39373 33.0925 9.51472 33.2572 9.22875C33.4218 8.94278 33.5865 8.62382 33.6523 8.55782L33.8609 8.90978C33.8609 8.99778 33.7401 9.08577 33.6962 9.16276C33.6523 9.23975 33.5865 9.34974 33.5316 9.43773H33.5645ZM5.27943 9.18476L6.44288 7.67792C6.44288 7.60093 6.44288 7.67792 6.56361 7.55693C6.68435 7.43594 6.62947 7.45794 6.67337 7.43594C6.71504 7.40822 6.74902 7.37038 6.77216 7.32596L6.89289 7.20497L7.10144 6.99599L8.00147 6.13808L8.1222 6.0391L8.49539 5.74213C8.72588 5.55515 9.4942 4.99421 9.79055 4.80723C10.0869 4.62025 10.1418 4.57625 10.3284 4.47726L10.9101 4.1583C13.5819 2.73727 16.5958 2.08982 19.614 2.2885C20.6412 2.35312 21.6596 2.5189 22.6544 2.78345C23.5441 3.0306 24.4108 3.35444 25.2447 3.75134C26.0469 4.10936 26.8148 4.54011 27.5387 5.0382C27.8021 5.22518 28.307 5.57715 28.5704 5.78612L29.2839 6.39106C29.3255 6.41878 29.3595 6.45662 29.3827 6.50105L29.7339 6.83101L29.9644 7.03999L30.5022 7.62292C30.5022 7.62292 30.5681 7.62292 30.612 7.72191C30.6559 7.8209 30.612 7.78791 30.7108 7.8319C31.2953 8.5269 31.8308 9.26194 32.3132 10.0317C32.5218 10.4056 32.7523 10.7796 32.9389 11.1315C33.0377 11.3405 33.1255 11.5275 33.2462 11.7365C34.7509 15.0277 35.1178 18.7277 34.2889 22.2513C33.7296 24.6415 32.6335 26.8722 31.0839 28.7736C30.8425 29.0596 30.612 29.3346 30.3595 29.5875L29.7997 30.1705C29.7339 30.2475 29.6351 30.3135 29.5693 30.3905C29.4878 30.4548 29.4108 30.5246 29.3388 30.5994L29.218 30.6874L28.3619 31.3914C25.4894 33.5699 21.976 34.7306 18.3738 34.691C16.3439 34.6653 14.3356 34.2702 12.4467 33.5251C11.6324 33.2124 10.8465 32.8296 10.0979 32.3812C9.63689 32.0733 9.20882 31.8203 8.79174 31.4903C8.70393 31.4243 8.6271 31.3804 8.53929 31.3034L7.44169 30.4015L6.67337 29.6755C6.37702 29.3676 5.65261 28.4547 5.46602 28.2017C4.41146 26.7615 3.60288 25.1558 3.07325 23.4502C2.93057 22.9883 2.82081 22.5373 2.70007 22.0754C2.70007 21.8004 2.57934 21.5144 2.53543 21.2175C2.18663 19.0795 2.25746 16.8939 2.74398 14.7831C2.98151 13.7451 3.32733 12.735 3.77572 11.7695C3.98426 11.3075 4.21476 10.8676 4.44525 10.4496C4.56599 10.2296 4.6977 10.0207 4.81843 9.81169L5.23552 9.18476H5.27943ZM2.09639 21.1625C1.97566 21.1625 1.88785 21.2614 1.78907 21.3054L1.88785 21.8444C2.05552 21.895 2.2288 21.9245 2.40372 21.9324V22.1634L0.658541 21.7674V21.5804L1.3171 21.1845C1.52564 21.0745 2.06347 20.7005 2.21713 20.6345L2.29396 21.0525C2.21713 21.0525 2.17323 21.0525 2.15127 21.1405L2.09639 21.1625ZM0.395118 19.1387V18.2038H0.603661V18.7647H1.03172H2.05249V19.1387H0.373166H0.395118ZM1.37198 17.8078L0.41707 17.7418C0.40643 17.533 0.40643 17.3237 0.41707 17.1149C0.414791 17.0239 0.437037 16.934 0.481465 16.8547C0.525893 16.7753 0.590858 16.7094 0.669517 16.6639C0.76708 16.6357 0.87039 16.6341 0.968789 16.6592C1.06719 16.6844 1.15712 16.7354 1.22929 16.8069C1.31502 16.9962 1.34546 17.206 1.3171 17.4119H2.04151V17.7858H1.33905L1.37198 17.8078ZM0.724397 16.081L0.559757 15.971V15.784H0.724397L2.34884 15.3771V15.795C2.25768 15.7845 2.16561 15.7845 2.07444 15.795H1.95371H1.83297L1.72321 16.477L2.1842 16.7299V16.9499C2.06212 16.9049 1.94744 16.8419 1.84395 16.7629C1.55857 16.598 0.998796 16.224 0.746349 16.125L0.724397 16.081ZM0.845133 14.5742V14.3652L2.07444 14.1232L1.6354 13.7053C1.48916 13.5606 1.33131 13.4281 1.16344 13.3093C1.16344 13.2433 1.16344 13.1993 1.16344 13.0783H1.26222L2.84276 13.2873L2.75495 13.6833L1.65735 13.5183L2.56836 14.3432V14.4092L1.47076 14.6402C1.79353 14.7906 2.12747 14.9156 2.46958 15.0141L2.39274 15.2451L0.845133 14.6182V14.5742ZM1.74516 12.0774L1.60247 11.9345L1.67931 11.7695H3.49034C3.49034 11.8905 3.38058 12.0224 3.34765 12.1654H2.82081L2.63422 12.6824C2.74398 12.7924 2.88666 12.8914 3.02935 13.0233L2.93057 13.1773C2.82081 13.0893 2.74398 13.0013 2.63422 12.9024L1.9098 12.1984C1.9098 12.1984 1.82199 12.0774 1.76711 12.0774H1.74516ZM3.0513 11.0985C2.84791 10.8152 2.6202 10.5503 2.37079 10.3066L2.46958 10.0867C2.76593 10.0867 3.3257 10.2296 3.56717 10.1856C3.70536 10.2073 3.84607 10.2073 3.98426 10.1856L4.17085 10.2736C4.24768 10.2736 4.17085 10.2736 4.17085 10.2736C3.98273 10.4626 3.83355 10.6869 3.73181 10.9336L3.45741 11.4945C3.45741 11.5825 3.45741 11.6045 3.45741 11.6815C3.38156 11.6325 3.30059 11.5919 3.21594 11.5605L3.27082 11.4725C3.22312 11.3941 3.16799 11.3204 3.10618 11.2525L3.0513 10.9776V11.0985ZM4.07207 9.85568C3.86826 9.83929 3.67509 9.75777 3.52098 9.62314C3.36686 9.4885 3.25994 9.30785 3.21594 9.10776C3.19679 8.89032 3.24264 8.67208 3.34765 8.48083C3.37687 8.44683 3.40261 8.40999 3.42449 8.37084C3.51094 8.24958 3.61882 8.1452 3.74279 8.06288L3.92938 8.24986C3.72084 8.24986 3.46839 8.37084 3.42449 8.68981C3.43137 8.81836 3.4678 8.94358 3.53092 9.05571C3.59405 9.16784 3.68216 9.26384 3.7884 9.33623C3.89463 9.40862 4.01612 9.45544 4.14338 9.47305C4.27065 9.49066 4.40025 9.47857 4.52208 9.43773C4.63186 9.37122 4.71764 9.27139 4.76698 9.15273C4.81632 9.03407 4.82665 8.90274 4.79648 8.7778C4.83152 8.78725 4.86422 8.80385 4.89256 8.82657C4.92089 8.84928 4.94423 8.87761 4.96112 8.90978C4.95068 9.06259 4.90157 9.21021 4.81843 9.33874C4.74178 9.47627 4.63052 9.59128 4.49572 9.67233C4.36092 9.75338 4.20729 9.79763 4.05012 9.80069L4.07207 9.85568ZM32.0827 9.10776C32.0203 8.98269 31.9346 8.8707 31.8303 8.7778C32.0169 8.61282 32.9279 7.96389 33.1255 7.77691L33.334 8.05188L32.5437 8.68981L32.3791 8.82179C32.2711 8.91659 32.1575 9.00474 32.0388 9.08577L32.0827 9.10776ZM32.0279 7.47994C32.0828 7.60093 32.3352 7.8099 32.3132 8.06288C32.2888 8.16173 32.2351 8.25088 32.1592 8.31866C32.0833 8.38644 31.9888 8.4297 31.888 8.44277C31.7872 8.45584 31.6848 8.43812 31.5942 8.39193C31.5036 8.34573 31.4291 8.27322 31.3803 8.18386L31.1498 7.8759C31.1156 7.84816 31.0923 7.80921 31.0839 7.76591L31.4022 7.50194C31.4537 7.46038 31.5088 7.42357 31.5669 7.39195L32.3791 6.75402L32.5876 7.03999C32.41 7.18423 32.223 7.31651 32.0279 7.43594V7.47994ZM5.33431 5.9951C5.39156 5.95439 5.44322 5.90632 5.48797 5.85212L7.12339 6.57804C7.0246 6.69902 6.9368 6.72102 6.85997 6.886L6.37702 6.57804C6.31117 6.57804 6.04774 6.908 5.98189 6.97399C6.04314 7.1353 6.12035 7.29006 6.21238 7.43594L5.86115 7.8649L4.96112 7.78791C4.96112 7.8649 5.02698 7.8649 5.09283 7.90889C5.24953 8.01736 5.39979 8.13488 5.54285 8.26086C5.54285 8.34885 5.40016 8.41484 5.33431 8.53583C5.27162 8.50743 5.21554 8.46622 5.16967 8.41484L4.07207 7.51294C4.07207 7.41395 4.18183 7.41395 4.28061 7.22697C4.40135 7.30396 4.79648 7.64492 4.88429 7.67792L4.6977 6.72102C4.74291 6.6778 4.78338 6.62987 4.81843 6.57804L4.96112 7.47994L6.05872 7.55693L5.35626 5.9951H5.33431ZM29.8437 6.20408C29.9214 6.31231 30.0181 6.40548 30.129 6.47905C30.3815 6.20408 30.7327 5.87411 31.0291 5.59914C31.0722 5.55384 31.12 5.51328 31.1717 5.47816L31.4242 5.73113C31.2156 5.94011 30.5242 6.64403 30.4034 6.83101L30.612 7.06199L31.3803 6.29207C31.4698 6.19476 31.5651 6.10294 31.6657 6.0171C31.7156 6.11703 31.7964 6.19807 31.8962 6.24807C31.8155 6.36007 31.7194 6.46005 31.6108 6.54504L31.04 7.16097C30.9412 7.24896 30.8534 7.39195 30.7327 7.45794L29.7339 6.47905C29.6108 6.38327 29.5002 6.27242 29.4046 6.14908C29.6571 5.85212 29.9863 5.56615 30.2717 5.29118C30.3649 5.18677 30.4639 5.08762 30.5681 4.99421L30.8205 5.24718C30.7108 5.33517 29.8217 6.27007 29.7997 6.34706L29.8437 6.20408ZM6.58557 5.01621C6.58557 5.1042 6.58557 5.01621 6.6624 5.1042L6.81606 5.29118L6.89289 5.41216C6.9807 5.41216 6.89289 5.41216 7.00265 5.31317C7.04615 5.28861 7.08666 5.25908 7.12339 5.22518C7.2112 5.14819 7.24412 5.1042 7.30998 5.0382L7.43072 5.18119C7.27107 5.2849 7.12695 5.41081 7.00265 5.55515L7.39779 5.9731C7.54445 5.86533 7.67718 5.73972 7.79292 5.59914C7.83709 5.64003 7.88484 5.67685 7.93561 5.70913C7.82924 5.83003 7.71164 5.94052 7.58438 6.0391C7.51852 6.0391 7.35388 6.27007 7.24412 6.34706L6.21238 5.24718C6.18289 5.2199 6.16031 5.18597 6.14653 5.14819L6.58557 4.75223C6.68108 4.66639 6.78391 4.5891 6.89289 4.52126C6.89289 4.62025 6.89289 4.62025 7.00265 4.68624C6.85175 4.78866 6.71196 4.90662 6.58557 5.0382V5.01621ZM28.1753 5.12619L27.8899 4.91722L28.0107 4.75223C28.1314 4.62025 28.8229 3.65235 28.8997 3.65235L29.9973 4.53226L29.3388 5.47816C29.2963 5.53742 29.2486 5.59265 29.1961 5.64314C29.1192 5.74213 29.1192 5.76413 29.0534 5.80812C28.9716 5.72652 28.8793 5.65624 28.779 5.59914C28.9093 5.39323 29.0562 5.19827 29.218 5.01621C29.2839 4.91722 29.3607 4.82923 29.4266 4.70824L29.6351 4.43327C29.5569 4.34173 29.4642 4.2637 29.3607 4.20229C29.2643 4.12406 29.1615 4.05415 29.0534 3.99332C28.9875 4.05931 28.8887 4.20229 28.8229 4.26829C28.757 4.33428 28.2412 5.0602 28.1424 5.12619H28.1753ZM27.6375 3.61936L27.846 3.75134C27.9193 3.79818 27.9964 3.83865 28.0765 3.87233L27.9887 4.03731C27.868 3.97132 27.6594 3.80634 27.5277 3.72935L27.2423 4.26829L27.4509 4.38927C27.5404 4.4221 27.6253 4.46647 27.7033 4.52126L27.6155 4.68624L26.8692 4.24629L27.7033 2.82744C27.8432 2.88952 27.9757 2.96699 28.0985 3.05842C28.2395 3.12717 28.3721 3.21206 28.4936 3.31139L28.3838 3.47637C28.2359 3.35999 28.0779 3.25693 27.9119 3.16841C27.868 3.33339 27.7472 3.47637 27.6814 3.61936H27.6375ZM8.86857 3.35539L9.42834 4.29028C9.49533 4.39555 9.55404 4.50587 9.60396 4.62025C9.50166 4.66864 9.40266 4.72376 9.30761 4.78523L8.86857 4.08131C8.78076 3.93832 8.47343 3.45437 8.45148 3.35539C8.42953 3.2564 9.54908 2.66246 9.70274 2.60747L10.3503 3.70735C10.4345 3.8232 10.5045 3.94875 10.5589 4.08131C10.4554 4.12734 10.3562 4.18255 10.2625 4.24629L10.0759 3.93832C9.95519 3.70735 9.60396 3.1904 9.51615 3.00342C9.29171 3.09918 9.08125 3.22498 8.89052 3.37738L8.86857 3.35539ZM26.6167 4.08131L26.2435 3.89433C26.3093 3.48702 26.3424 3.07507 26.3423 2.66246C26.0905 2.85485 25.8521 3.06432 25.6289 3.28939C25.552 3.28939 25.4642 3.47637 25.3984 3.49837L25.2447 3.41038L25.3764 3.27839C25.4313 3.27839 25.4313 3.27839 25.4533 3.2124L25.5411 3.13541L25.8923 2.83844C26.1228 2.67346 26.3752 2.38749 26.5618 2.23351L26.7265 2.3215L26.5618 4.1033L26.6167 4.08131ZM10.2406 2.3105C10.515 2.21151 11.0528 1.79355 11.3382 2.07952C11.6235 2.36549 11.4369 2.84944 10.9979 2.98143L11.2943 3.66335L10.965 3.80634L10.2406 2.3105ZM11.6565 1.66157L12.0077 1.51858L12.2382 2.18951C12.4273 2.10365 12.6347 2.06587 12.8419 2.07952C12.9305 2.12106 13.0044 2.1886 13.0539 2.27319C13.1034 2.35777 13.126 2.45542 13.1189 2.5532C13.1118 2.65098 13.0752 2.74429 13.0139 2.82076C12.9527 2.89723 12.8697 2.95326 12.776 2.98143C12.5883 3.06732 12.3937 3.13723 12.1943 3.1904L11.6345 1.66157H11.6565ZM18.0994 0.308715H18.286L18.9884 1.98053H18.5933C18.5132 1.82671 18.4506 1.66438 18.4067 1.49659H17.8469L17.6823 2.00253H17.4518L18.0994 0.330713V0.308715ZM23.5215 1.07863L24.3996 1.3646L24.3337 1.57358C24.1654 1.50157 23.9932 1.43915 23.8178 1.3866L23.6861 1.87055L24.1471 1.95854V2.17851L23.6313 2.01353L23.4666 2.59647C23.6296 2.67219 23.8039 2.7205 23.9825 2.73945V2.94843L23.0495 2.64046L23.5434 1.07863H23.5215ZM12.8858 1.26561C13.0066 1.24222 13.1244 1.20532 13.237 1.15562L13.7968 2.71745L13.4455 2.82744L12.8858 1.26561ZM13.7968 1.26561C13.9175 0.803662 14.8944 0.660677 14.9602 1.26561C14.9602 1.49659 14.8395 1.56258 14.7297 1.66157C14.9602 1.66157 15.1249 1.66157 15.1907 1.89254C15.2234 1.99259 15.2234 2.10047 15.1907 2.20051C15.0832 2.40203 14.9017 2.55373 14.6846 2.62353C14.4674 2.69332 14.2317 2.67573 14.0273 2.57447C14.0216 2.50014 14.0336 2.42552 14.0622 2.35671C14.0908 2.2879 14.1353 2.22684 14.1919 2.17851C14.2578 2.17851 14.1919 2.17851 14.2578 2.2555C14.3236 2.3325 14.2578 2.2555 14.2578 2.3215C14.598 2.59647 14.9932 2.03553 14.6749 1.73856C14.5322 1.59558 14.3895 1.73856 14.2248 1.73856V1.57358C14.5322 1.57358 14.6419 1.32061 14.4883 1.03464C14.3346 0.748667 14.0383 0.825659 14.0383 1.29861C13.9285 1.29861 13.9065 1.22162 13.7858 1.17762L13.7968 1.26561ZM21.48 0.682675L21.8312 0.748667L21.6885 1.4086L22.4129 1.55158L22.5556 0.91365L22.9068 0.990641C22.9068 1.12263 22.6215 2.3435 22.5776 2.61847L22.2263 2.55247C22.2457 2.28417 22.2935 2.0187 22.369 1.76056C22.134 1.68451 21.8908 1.63651 21.6446 1.61757L21.48 2.38749L21.1178 2.17851L21.469 0.605683L21.48 0.682675ZM16.9359 0.396705L17.1445 2.02453H16.7713L16.6835 1.23262L16.003 1.29861H15.9371L16.0249 2.06852H15.6846L15.4761 0.561688H15.8383L15.9371 1.21062L16.6615 1.07863L16.5847 0.418703H16.9579L16.9359 0.396705ZM19.2628 2.00253C19.2628 1.89254 19.3836 0.583685 19.4055 0.35271H19.7787L19.7567 1.07863C20.002 1.12971 20.253 1.14821 20.5031 1.13363V0.495695H20.8763L20.7226 2.17851H20.3824L20.4482 1.3866C20.2304 1.28932 19.9952 1.23695 19.7567 1.23262L19.6909 2.02453H19.3396L19.2628 2.00253ZM36.7036 21.8004C36.5719 21.6684 36.5719 21.5694 36.5939 21.3384C36.6158 21.1075 36.5939 21.1515 36.6597 21.0855C36.7256 21.0195 36.8024 20.9865 36.8463 20.9205C37.0218 19.4813 37.0218 18.0261 36.8463 16.587C36.6691 15.001 36.3005 13.4425 35.7487 11.9455C35.5402 11.3845 35.2987 10.8456 35.0463 10.3396C34.9036 10.0537 34.7719 9.84468 34.6511 9.59171C34.4601 9.21095 34.2438 8.84349 34.0035 8.49183C33.9332 8.36781 33.8525 8.25006 33.7621 8.13987C33.5071 7.73517 33.2286 7.34587 32.9279 6.97399C32.8835 6.91632 32.8359 6.86124 32.7852 6.80901C32.5986 6.55604 31.951 5.83012 31.6876 5.59914L31.5888 5.47816C31.4566 5.32469 31.3095 5.1847 31.1498 5.0602C31.1498 5.0602 31.0839 4.96121 31.0071 4.91722L30.4693 4.45527C30.2513 4.24657 30.0203 4.05187 29.7778 3.87233C27.2503 1.89852 24.248 0.627585 21.0739 0.187728C17.1686 -0.384501 13.1831 0.313255 9.70274 2.17851C8.95638 2.60747 8.28684 3.02542 7.60633 3.50937C7.28803 3.74034 6.95875 4.00432 6.65142 4.25729L6.58557 4.37827L5.91603 4.98321C5.8392 4.98321 5.81725 5.0822 5.75139 5.12619C5.68554 5.17019 5.48797 5.39017 5.33431 5.47816C5.18064 5.56615 5.23552 5.57715 5.16967 5.62114L4.77453 6.06109C4.60989 6.27007 4.40135 6.45705 4.23671 6.66603L3.84157 7.16097C3.74279 7.27096 3.67693 7.36995 3.58913 7.47994C1.82455 9.89699 0.66516 12.7034 0.208526 15.6631C0.000216755 17.1198 -0.0513001 18.5948 0.0548626 20.0626C0.29581 23.0983 1.29203 26.0251 2.95252 28.5757L3.42449 29.2576C3.49034 29.3676 3.58913 29.4666 3.65498 29.5765C3.72084 29.6865 4.48916 30.6764 4.67575 30.8414L6.12458 32.2823C6.21238 32.3812 6.33312 32.4472 6.42093 32.5462C6.53029 32.6217 6.6331 32.7064 6.72825 32.7992L7.37584 33.3051C9.91432 35.2108 12.8988 36.4311 16.0431 36.8491C19.1873 37.267 22.386 36.8685 25.3325 35.6919C26.3865 35.2623 27.4003 34.7396 28.3619 34.1301L28.7022 33.8881C29.0534 33.6571 29.3827 33.4261 29.701 33.1732L30.1729 32.7992C30.3815 32.6342 30.59 32.4252 30.7986 32.2603L32.1047 30.9514C32.1047 30.9514 32.1047 30.9514 32.1706 30.8854L32.2913 30.7204L32.3572 30.6544C32.3572 30.6544 32.3572 30.6544 32.3572 30.5774L32.8291 30.0275C33.2023 29.5765 33.7072 28.8396 34.0365 28.3447C34.3658 27.8497 34.6182 27.3878 34.8706 26.9038C35.557 25.5659 36.0733 24.147 36.4073 22.6803C36.4896 22.3656 36.5519 22.046 36.5939 21.7234L36.7036 21.8004ZM8.51734 13.6173H14.9602L18.4945 2.61847C17.0084 2.61252 15.5294 2.82372 14.1041 3.2454C12.1417 3.84197 10.3095 4.80476 8.70393 6.08309L7.83683 6.80901L6.58557 8.16187L5.95994 8.95378C5.76191 9.19188 5.58903 9.44989 5.44407 9.7237C5.34528 9.7237 5.21357 10.0427 5.15869 10.1417C5.10381 10.2406 4.98307 10.4496 4.88429 10.6036C4.53108 11.231 4.2123 11.8772 3.92938 12.5394C3.77813 12.8963 3.6534 13.2639 3.5562 13.6393H8.51734V13.6173ZM13.4016 18.1378C12.9846 18.2808 12.9846 18.9297 13.0065 19.3697C13.0285 19.8096 13.1492 20.4695 13.698 20.2826C14.2468 20.0956 14.148 18.7207 13.9614 18.3908C13.9093 18.2877 13.8214 18.2073 13.7142 18.1648C13.6071 18.1222 13.4881 18.1205 13.3797 18.1598L13.4016 18.1378ZM16.6944 15.938C16.4639 16.004 16.4639 16.356 16.4639 16.565C16.4639 16.7739 16.5298 17.1259 16.8371 17.0269C17.1445 16.9279 17.2103 15.85 16.7493 15.971L16.6944 15.938ZM12.9407 35.5929C12.9822 35.6235 13.0308 35.6431 13.082 35.6499C13.1331 35.6567 13.1851 35.6505 13.2332 35.6319C13.2813 35.6132 13.3239 35.5828 13.3572 35.5433C13.3905 35.5038 13.4133 35.4566 13.4236 35.4059C13.5224 35.131 13.4236 35.01 13.1492 34.966L12.9407 35.5709V35.5929ZM19.3506 35.8789C19.5921 35.8789 19.7019 35.7799 19.7019 35.5489C19.7019 35.3179 19.614 35.1969 19.4714 35.2189H19.3287L19.3836 35.8789H19.3506ZM10.6137 2.2885C10.6948 2.49839 10.794 2.70081 10.9101 2.89344C10.9739 2.86658 11.0283 2.82147 11.0665 2.76375C11.1048 2.70603 11.1252 2.63827 11.1252 2.56897C11.1252 2.49967 11.1048 2.43191 11.0665 2.37419C11.0283 2.31647 10.9739 2.27136 10.9101 2.24451C10.7674 2.17851 10.7235 2.2665 10.6137 2.2885ZM24.0044 34.988L24.2349 35.5929C24.2849 35.5855 24.3322 35.566 24.3728 35.5359C24.4134 35.5059 24.446 35.4663 24.4677 35.4206C24.4894 35.375 24.4995 35.3246 24.4972 35.2741C24.4949 35.2236 24.4802 35.1744 24.4545 35.1309C24.4437 35.0844 24.421 35.0416 24.3887 35.0065C24.3564 34.9714 24.3155 34.9454 24.2701 34.931C24.2247 34.9166 24.1763 34.9142 24.1297 34.9242C24.0832 34.9342 24.04 34.9562 24.0044 34.988ZM2.05249 25.9689C2.11835 26.1779 2.23908 26.2989 2.49153 26.1559C2.74398 26.0129 2.72202 25.9249 2.63422 25.683C2.44813 25.7648 2.26836 25.8604 2.09639 25.9689H2.05249ZM6.08067 31.6333L6.51971 31.1604C6.45746 31.0947 6.3773 31.0488 6.28922 31.0284C6.19033 31.0286 6.09559 31.0682 6.02579 31.1384C5.81725 31.3474 5.91603 31.4903 6.02579 31.6113L6.08067 31.6333ZM12.2382 2.35449L12.4467 2.95943C12.9407 2.87144 12.6772 2.07952 12.2382 2.35449ZM22.38 16.323V16.477C22.5666 16.477 22.7532 16.477 22.7532 16.268C22.7532 16.059 22.5446 16.059 22.38 16.059V16.323ZM17.5615 36.0658H18.0006C17.9617 35.8719 17.899 35.6835 17.814 35.5049L17.5835 36.0439L17.5615 36.0658ZM33.1913 27.3438L33.7511 27.4318C33.6519 27.2705 33.5419 27.1162 33.4218 26.9698L33.356 27.0358C33.356 27.0358 33.356 27.1128 33.356 27.1348C33.2856 27.1967 33.2229 27.2669 33.1694 27.3438H33.1913ZM17.825 1.3316H18.2421L18.0555 0.792663L17.825 1.3316ZM36.7036 21.4704L36.7585 21.1405C36.6817 21.1405 36.6597 21.3714 36.6817 21.4264C36.7036 21.4814 36.6817 21.4484 36.7036 21.4704ZM15.8493 20.1836H16.9469L16.431 18.5337L15.8712 20.1616L15.8493 20.1836ZM34.717 14.8491C34.717 15.0581 34.8597 15.2231 35.1121 15.1791C35.3646 15.1351 35.4194 14.9921 35.3646 14.7062L34.7389 14.8271L34.717 14.8491ZM36.4841 17.9508H35.8365C35.8365 18.3688 36.2536 18.3688 36.4183 18.2258C36.5829 18.0828 36.4841 18.0608 36.4841 17.9288V17.9508ZM31.3583 7.93089C31.4791 8.04088 31.6108 8.18386 31.8413 8.01888C32.0718 7.8539 32.0828 7.66692 31.8413 7.53493C31.6687 7.65669 31.5038 7.78893 31.3474 7.93089H31.3583ZM35.4963 14.6842C35.4963 14.8931 35.617 15.0361 35.8475 14.9921C36.078 14.9481 36.1 14.8051 36.056 14.5742L35.4963 14.6842ZM35.5951 19.5126C35.7773 19.4708 35.954 19.408 36.1219 19.3257C35.9604 19.2346 35.7915 19.1573 35.617 19.0947V19.4906L35.5951 19.5126ZM34.728 13.0343L34.8487 13.4303C34.9379 13.3752 35.0224 13.3126 35.1011 13.2433C35.1011 13.2433 35.1231 13.1773 35.2219 13.1773C35.2609 13.1597 35.2921 13.1284 35.3097 13.0893H34.728V13.0343ZM35.5182 16.62L36.0341 16.367C35.8516 16.299 35.6645 16.2438 35.4743 16.202L35.5182 16.62ZM3.44644 11.2415C3.58671 11.0303 3.69749 10.8009 3.77572 10.5596L2.74398 10.4166C2.82081 10.5376 3.0074 10.7246 3.09521 10.8456L3.46839 11.2415H3.44644ZM0.515853 17.3459H1.16344C1.16344 17.1149 1.09758 16.9719 0.867085 16.9499C0.636589 16.9279 0.47195 17.0819 0.515853 17.3459ZM1.09758 21.6794L1.65735 21.8004L1.58052 21.3714C1.51467 21.3714 1.42686 21.4704 1.35003 21.4924L1.24027 21.5584L1.09758 21.6794ZM0.976844 15.993C1.05542 16.0616 1.14433 16.1173 1.24027 16.158C1.3197 16.2105 1.40429 16.2547 1.49272 16.29L1.55857 15.872L0.998796 15.993H0.976844ZM2.44762 12.4294C2.44762 12.3304 2.57934 12.0994 2.57934 12.0334H2.03054C2.15035 12.1844 2.29076 12.3177 2.44762 12.4294ZM5.86115 6.83101L6.16848 6.57804L5.63066 6.36906L5.86115 6.83101Z" fill="black" fill-opacity="0.13"/>
</g>
<defs>
<clipPath id="clip0">
<rect width="37" height="37" fill="white"/>
</clipPath>
</defs>
</svg>
